<?xml version="1.0" encoding="UTF-8" standalone="no"?>
<!-- Generator: Adobe Illustrator 22.1.0, SVG Export Plug-In . SVG Version: 6.00 Build 0)  -->

<svg
   xmlns:dc="http://purl.org/dc/elements/1.1/"
   xmlns:cc="http://creativecommons.org/ns#"
   xmlns:rdf="http://www.w3.org/1999/02/22-rdf-syntax-ns#"
   xmlns:svg="http://www.w3.org/2000/svg"
   xmlns="http://www.w3.org/2000/svg"
   xmlns:sodipodi="http://sodipodi.sourceforge.net/DTD/sodipodi-0.dtd"
   xmlns:inkscape="http://www.inkscape.org/namespaces/inkscape"
   version="1.1"
   id="Layer_1"
   x="0px"
   y="0px"
   viewBox="0 0 65.199996 73.199997"
   xml:space="preserve"
   sodipodi:docname="logo.svg"
   width="65.199997"
   height="73.199997"
   inkscape:version="0.92.3 (2405546, 2018-03-11)"><metadata
   id="metadata38"><rdf:RDF><cc:Work
       rdf:about=""><dc:format>image/svg+xml</dc:format><dc:type
         rdf:resource="http://purl.org/dc/dcmitype/StillImage" /><dc:title></dc:title></cc:Work></rdf:RDF></metadata><defs
   id="defs36" /><sodipodi:namedview
   pagecolor="#ffffff"
   bordercolor="#666666"
   borderopacity="1"
   objecttolerance="10"
   gridtolerance="10"
   guidetolerance="10"
   inkscape:pageopacity="0"
   inkscape:pageshadow="2"
   inkscape:window-width="1920"
   inkscape:window-height="1017"
   id="namedview34"
   showgrid="false"
   inkscape:zoom="11.156574"
   inkscape:cx="39.749022"
   inkscape:cy="42.503361"
   inkscape:window-x="-8"
   inkscape:window-y="-8"
   inkscape:window-maximized="1"
   inkscape:current-layer="g31" />
<style
   type="text/css"
   id="style2">
	.st0{fill:url(#SVGID_1_);}
</style>
<g
   id="g31"
   transform="translate(-35.47698,-58.1)">
	<linearGradient
   id="SVGID_1_"
   gradientUnits="userSpaceOnUse"
   x1="130.68781"
   y1="94.786697"
   x2="195.9686"
   y2="94.786697"
   gradientTransform="translate(-76.02302)">
		<stop
   offset="0"
   style="stop-color:#43CBFF"
   id="stop4" />
		<stop
   offset="0.9926"
   style="stop-color:#7708CC"
   id="stop6" />
	</linearGradient>
	<path
   class="st0"
   d="m 98.376983,107.1 v -9.2 c 1.3,-0.7 2.199997,-2.2 2.199997,-3.8 0,-2.4 -1.899997,-4.3 -4.299997,-4.3 -1.2,0 -2.3,0.5 -3.1,1.3 -2.5,-0.4 -4.9,-0.5 -7.3,-0.4 -0.8,-0.9 -1.9,-1.4 -3.2,-1.4 -2.4,0 -4.3,1.9 -4.3,4.3 0,2.4 1.9,4.3 4.3,4.3 1.4,0 2.7,-0.7 3.5,-1.8 2.1,-0.1 4.2,0 6.5,0.3 0.1,0.1 0.1,0.2 0.2,0.3 0,3.5 0,6.8 0,10.4 -8.2,-0.2 -16.7,-2.7 -24.500003,-6.3 v 0 c -0.3,-2.3 -2.4,-4.1 -4.8,-4.1 -0.6,0 -1.2,0.1 -1.7,0.3 -1.8,-1.2 -3.5,-2.4 -5.2,-4 0.1,-0.4 0.2,-0.8 0.2,-1.2 0,0 0,-0.1 0,-0.1 10.5,-8.4 22.300003,-11.1 34.900003,-11.2 0.8,0.9 1.9,1.4 3.2,1.4 2.4,0 4.3,-1.9 4.3,-4.3 0,-2.4 -1.9,-4.3 -4.3,-4.3 -0.5,0 -0.9,0.1 -1.4,0.2 -8.5,-4.9 -12.7,-7.3 -21.500003,-12.4 -0.6,-1.8 -2.2,-3 -4.1,-3 -2,0 -3.6,1.3 -4.1,3.1 -7.3,4.2 -14.5,8.4 -21.6,12.5 -0.5,-0.2 -1.1,-0.4 -1.8,-0.4 -2.4,0 -4.3,1.9 -4.3,4.3 0,1.3 0.5,2.4 1.4,3.2 v 25.9 c -1.3,0.8 -2.1,2.1 -2.1,3.7 0,2.4 1.9,4.3 4.3,4.3 0.7,0 1.4,-0.2 2.1,-0.5 7.2,4.2 14.5,8.4 21.9,12.6 0,0.1 0,0.1 0,0.2 0,2.4 1.9,4.3 4.3,4.3 2.4,0 4.3,-1.9 4.3,-4.3 0,0 0,-0.1 0,-0.1 7.300003,-4.2 14.500003,-8.4 21.600003,-12.5 0.7,0.5 1.5,0.7 2.4,0.7 2.4,0 4.299997,-1.9 4.299997,-4.3 -0.1,-1.5 -0.999997,-3 -2.299997,-3.7 z M 53.77698,87.4 c -0.6,-0.2 -1.2,-0.4 -1.8,-0.4 -0.5,0 -1,0.1 -1.4,0.2 -2.3,-2.4 -4.2,-5 -6.2,-7.8 0.1,-0.3 0.2,-0.6 0.3,-0.9 7.1,-4.1 14.1,-8.2 21.2,-12.3 0.6,0.3 1.3,0.5 2.1,0.5 0.8,0 1.5,-0.2 2.1,-0.6 5.000003,2.9 10.100003,5.8 15.900003,9.2 C 73.47698,76.5 62.97698,80 53.77698,87.4 Z m -10.7,-0.5 c 1.5,1.7 2.7,3.2 4,4.6 0,0.1 0,0.3 0,0.4 0,0.6 0.1,1.1 0.3,1.7 -1.4,1.8 -2.7,3.5 -4.2,5.5 -0.1,-4.1 -0.1,-7.9 -0.1,-12.2 z m 0.8,22.4 c 0,-0.1 -0.1,-0.2 -0.1,-0.3 2.1,-4.6 4.7,-8.5 8,-12.2 0.1,0 0.1,0 0.2,0 0.2,0 0.3,0 0.5,0 2.1,1.6 4.2,3.2 6.3,4.8 0,0 0,0.1 0,0.1 0,0.8 0.2,1.5 0.5,2.2 -2.5,3.2 -4.5,6.7 -6.5,10.5 -3.1,-1.7 -5.9,-3.4 -8.9,-5.1 z m 24.9,13.5 c -0.3,-0.1 -0.6,-0.1 -0.8,-0.1 -0.2,0 -0.5,0 -0.7,0.1 -3.2,-1.8 -6.4,-3.7 -9.7,-5.6 1.7,-3.9 3.8,-7.5 6.6,-10.7 0.7,-0.1 1.4,-0.3 2,-0.7 6.5,3.1 13.200003,5.2 20.900003,6.4 -6.5,3.8 -12.3,7.1 -18.300003,10.6 z"
   id="path9"
   style="fill:url(#SVGID_1_)"
   inkscape:connector-curvature="0" />
	<g
   id="g29"
   transform="translate(-49.656823)">
		
		
		
		
		
		
		
		
		
	<text
   xml:space="preserve"
   style="font-style:normal;font-variant:normal;font-weight:normal;font-stretch:normal;font-size:10.66666698px;line-height:1.25;font-family:'CMU Classical Serif';-inkscape-font-specification:'CMU Classical Serif';letter-spacing:0px;word-spacing:0px;fill:#6745dc;fill-opacity:1;stroke:none"
   x="152.7735"
   y="111.88236"
   id="text42"><tspan
     sodipodi:role="line"
     x="152.7735"
     y="111.88236"
     style="font-style:normal;font-variant:normal;font-weight:bold;font-stretch:normal;font-size:37.33333206px;line-height:1;font-family:'Tw Cen MT Condensed Extra Bold';-inkscape-font-specification:'Tw Cen MT Condensed Extra Bold, Bold';fill:#6745dc;fill-opacity:1"
     id="tspan862">raph Theory</tspan></text>
</g>
</g>
</svg>